<svg width="418" height="251" viewBox="0 0 418 251" fill="none" xmlns="http://www.w3.org/2000/svg">
<g clip-path="url(#clip0_33_287)">
<rect x="14.9841" width="327" height="214" rx="24" transform="rotate(4.01509 14.9841 0)" fill="#FF886D"/>
<rect x="8.38513" y="-80.2487" width="38.2699" height="221.562" transform="rotate(-20.4348 8.38513 -80.2487)" fill="white"/>
<rect x="95.1459" y="-90.8418" width="38.2699" height="221.562" transform="rotate(24.5652 95.1459 -90.8418)" fill="white"/>
<rect x="165.587" y="-39.085" width="38.2699" height="221.562" transform="rotate(69.5652 165.587 -39.085)" fill="white"/>
<rect x="179.091" y="44.4629" width="38.2699" height="221.562" transform="rotate(114.565 179.091 44.4629)" fill="white"/>
<g clip-path="url(#clip1_33_287)">
<path d="M33.5877 36.3919L34.2827 26.4903L36.1541 26.6216L35.5708 34.9312L43.0145 35.4537L42.9027 37.0458L33.5877 36.3919ZM44.6347 37.1673L45.214 28.9136L47.0575 29.043L46.4782 37.2967L44.6347 37.1673ZM45.3023 27.6567L45.4189 25.9948L47.2624 26.1242L47.1457 27.7861L45.3023 27.6567ZM48.6713 37.4507L49.2507 29.197L51.2058 29.3342L51.0804 31.1218C52.2349 29.8696 53.9208 29.2441 56.0436 29.3931C58.6971 29.5793 60.2416 30.7684 60.0132 34.0224L59.7181 38.2261L57.763 38.0888L58.0119 34.5416C58.1825 32.1115 57.2975 31.1231 55.0491 30.9653C52.7168 30.8016 51.0216 31.9598 50.8706 34.1105L50.6265 37.5879L48.6713 37.4507ZM67.1794 39.0305C63.6042 38.7795 61.5403 36.9926 61.7344 34.2274C61.9285 31.4622 64.2647 29.9701 67.7002 30.2113C71.1637 30.4544 73.1529 32.3062 72.9157 35.6859L63.6844 35.038C63.8608 36.524 65.1466 37.4001 67.3392 37.554C69.1408 37.6805 70.395 37.2071 70.8248 36.283L72.738 36.4173C72.1039 38.2534 70.196 39.2422 67.1794 39.0305ZM63.8133 33.6015L71.0196 34.1073C70.7903 32.5755 69.6083 31.8188 67.6113 31.6787C65.6002 31.5375 64.2524 32.1446 63.8133 33.6015ZM83.7117 34.9139C83.8195 33.3777 82.7437 32.9092 80.6628 32.7632C79.2383 32.6632 77.7344 32.8945 75.729 33.273L75.5703 31.5356C77.5189 31.1671 79.3949 31.0322 81.0429 31.1478C84.4505 31.387 85.8235 32.6202 85.6343 35.3156L85.304 40.022L83.3627 39.8857L83.4333 38.8802C81.8393 39.5963 79.9904 39.9437 78.2587 39.8222C75.7169 39.6438 74.4039 38.5552 74.5294 36.7676C74.6627 34.8682 76.3952 33.9794 79.3559 34.1872C80.6966 34.2813 82.1892 34.6106 83.697 35.1234L83.7117 34.9139ZM76.5632 36.784C76.4917 37.8035 77.2644 38.391 78.8146 38.4999C80.1693 38.5949 81.7927 38.2598 83.5245 37.5814L83.6009 36.4921C81.7619 35.8998 80.823 35.6796 79.3147 35.5737C77.4992 35.4463 76.6348 35.7645 76.5632 36.784Z" fill="black"/>
<rect x="31.1277" y="62.7845" width="43" height="30" rx="5.5" transform="rotate(4.01509 31.1277 62.7845)" fill="#F5E97C" stroke="black"/>
<path d="M30.1211 84.2667L59.5115 86.3296L60.7621 86.4174L72.018 87.2075" stroke="black"/>
<path d="M30.9613 72.2961L46.3563 73.3767L47.0114 73.4227L50.9122 73.6965" stroke="black"/>
<path d="M58.8926 74.2567L68.6894 74.9443L69.1063 74.9736L72.8582 75.237" stroke="black"/>
<path d="M58.9626 73.2591L58.3241 82.3562L58.2969 82.7433L58.0524 86.2272" stroke="black"/>
<path d="M41.9343 73.0664L41.3449 81.4636L41.3198 81.8209L41.0941 85.0369" stroke="black"/>
<path d="M51.2623 68.7088L50.9676 72.9074L50.9551 73.0861L50.8772 74.1953" stroke="black"/>
<path d="M57.5626 64.64L52.7018 68.3153L52.4934 68.493L51.2 69.5957" stroke="black"/>
<path d="M45.5921 63.7997L49.8468 68.1577L50.0263 68.3644L51.1411 69.6474" stroke="black"/>
<path d="M57.7373 90.7162L58.032 86.5176L58.0446 86.3389L58.1224 85.2297" stroke="black"/>
<path d="M51.4719 94.2863L56.2978 91.1097L56.5061 90.932L57.7995 89.8293" stroke="black"/>
<path d="M63.4425 95.1265L59.1528 91.2673L58.9733 91.0607L57.8585 89.7776" stroke="black"/>
<path d="M275.85 58.3971L280.551 39.0909L285.877 39.4648L281.173 58.7708L275.85 58.3971Z" fill="black"/>
<path d="M301.757 41.0029C300.729 40.533 299.106 39.9921 297.041 39.8472C291.778 39.4778 287.885 41.8678 287.587 45.6638C287.36 48.4694 289.927 50.2235 291.881 51.3C293.887 52.4034 294.541 53.0631 294.471 53.9175C294.366 55.2264 292.682 55.7093 291.151 55.6019C289.019 55.4522 287.907 55.0766 286.21 54.2245L285.545 53.8657L284.49 58.1874C285.696 58.8203 287.963 59.4542 290.35 59.6464C295.949 60.0393 299.767 57.6745 300.093 53.6214C300.269 51.3999 298.969 49.6089 295.994 47.9986C294.196 46.964 293.098 46.2808 293.174 45.3663C293.231 44.5542 294.257 43.7534 296.343 43.8998C298.086 43.995 299.321 44.4633 300.276 44.9282L300.738 45.1872L301.757 41.0029Z" fill="black"/>
<path d="M315.492 41.5434L311.376 41.2545C310.101 41.165 309.123 41.446 308.474 42.6791L299.307 60.0308L304.9 60.4234C304.9 60.4234 305.983 58.0799 306.227 57.5657C306.838 57.6086 312.271 57.9984 313.047 58.0529C313.158 58.7482 313.49 61.0263 313.49 61.0263L318.432 61.3732L315.492 41.5434ZM308.076 53.7024C308.596 52.6075 310.582 48.3891 310.582 48.3891C310.547 48.4389 311.099 47.2885 311.419 46.5737L311.661 48.2837C311.661 48.2837 312.353 53.0195 312.497 54.0124L308.076 53.7021L308.076 53.7024Z" fill="black"/>
<path d="M254.032 37.2296L253.936 37.6312C256.005 38.2887 257.834 39.1583 259.416 40.1915L262.953 57.4604L268.588 57.8497L278.342 38.9359L272.7 38.5399L266.55 51.4987L266.185 48.7516C266.165 48.6662 266.143 48.5804 266.12 48.4943L264.919 39.6515C264.683 38.3916 263.774 37.9567 262.62 37.8324L254.032 37.2296Z" fill="black"/>
</g>
<path d="M27.8112 144.252L28.5674 133.479L26.3329 133.322L26.4114 132.205L29.9227 132.451L29.0881 144.342L27.8112 144.252ZM35.8435 145.008C35.0774 144.955 34.4019 144.752 33.8171 144.401C33.2436 144.04 32.8003 143.576 32.4873 143.009C32.1856 142.431 32.0591 141.797 32.1076 141.105C32.1607 140.35 32.4209 139.689 32.8883 139.123C33.3664 138.558 33.9808 138.184 34.7314 138.001L34.7079 138.337C34.1611 138.052 33.7502 137.66 33.4753 137.159C33.2011 136.648 33.0834 136.116 33.1222 135.563C33.1633 134.978 33.3488 134.467 33.6789 134.03C34.0089 133.593 34.4334 133.26 34.9521 133.029C35.4823 132.788 36.0666 132.69 36.705 132.735C37.3541 132.78 37.9193 132.954 38.4008 133.255C38.8829 133.545 39.2512 133.935 39.5057 134.423C39.7715 134.901 39.8835 135.439 39.8417 136.034C39.7998 136.63 39.6029 137.151 39.2508 137.597C38.8995 138.032 38.4545 138.354 37.916 138.562L37.9235 138.225C38.6413 138.511 39.1921 138.967 39.5759 139.592C39.9703 140.219 40.141 140.91 40.088 141.665C40.0394 142.357 39.8202 142.967 39.4302 143.496C39.0516 144.015 38.5479 144.412 37.919 144.689C37.3014 144.956 36.6096 145.062 35.8435 145.008ZM35.9219 143.891C36.4646 143.929 36.9452 143.861 37.3637 143.688C37.783 143.503 38.1174 143.233 38.367 142.876C38.628 142.509 38.776 142.076 38.8111 141.576C38.8462 141.076 38.7598 140.631 38.5519 140.242C38.3553 139.844 38.0619 139.529 37.6718 139.298C37.2824 139.057 36.8164 138.918 36.2737 138.88C35.731 138.841 35.2447 138.914 34.8148 139.098C34.3963 139.272 34.0619 139.542 33.8115 139.91C33.5619 140.266 33.4196 140.695 33.3845 141.195C33.3494 141.695 33.4301 142.144 33.6267 142.543C33.824 142.931 34.1173 143.246 34.5067 143.487C34.9075 143.718 35.3793 143.853 35.9219 143.891ZM36.3521 137.762C36.7458 137.79 37.1026 137.735 37.4223 137.597C37.7429 137.448 38.0036 137.237 38.2047 136.962C38.4171 136.678 38.5372 136.338 38.5648 135.945C38.5924 135.551 38.5206 135.204 38.3492 134.903C38.1885 134.603 37.9594 134.362 37.6621 134.181C37.3655 133.989 37.0203 133.88 36.6266 133.852C36.2329 133.824 35.8705 133.884 35.5393 134.032C35.2195 134.17 34.9538 134.376 34.7421 134.65C34.541 134.925 34.4267 135.259 34.3991 135.652C34.3714 136.046 34.4376 136.398 34.5976 136.709C34.7689 137.01 35.0029 137.256 35.2996 137.448C35.6076 137.63 35.9584 137.735 36.3521 137.762ZM46.7116 145.771C45.7753 145.706 44.9686 145.392 44.2915 144.832C43.6258 144.261 43.1282 143.504 42.7988 142.561C42.4701 141.608 42.3486 140.52 42.4345 139.296C42.5204 138.072 42.7923 137.017 43.2503 136.129C43.7089 135.231 44.3073 134.551 45.0455 134.09C45.7836 133.629 46.6208 133.431 47.5572 133.496C48.4936 133.562 49.2949 133.875 49.9614 134.435C50.6278 134.995 51.1254 135.752 51.4541 136.705C51.7835 137.648 51.9053 138.731 51.8194 139.955C51.7336 141.178 51.4613 142.239 51.0026 143.137C50.5546 144.036 49.9615 144.716 49.2234 145.178C48.4852 145.639 47.648 145.837 46.7116 145.771ZM46.7957 144.574C47.4766 144.622 48.0871 144.456 48.627 144.077C49.1668 143.698 49.6062 143.152 49.945 142.438C50.2846 141.713 50.4891 140.856 50.5585 139.866C50.628 138.877 50.5449 138.005 50.3091 137.25C50.0741 136.485 49.7154 135.883 49.233 135.442C48.7514 134.992 48.1648 134.742 47.4732 134.693C46.7922 134.646 46.1817 134.811 45.6419 135.19C45.1027 135.559 44.6634 136.105 44.3238 136.83C43.985 137.544 43.7809 138.396 43.7114 139.386C43.6427 140.364 43.7258 141.236 43.9608 142.001C44.1959 142.766 44.5542 143.374 45.0358 143.825C45.528 144.277 46.1147 144.526 46.7957 144.574ZM57.5557 146.532C56.7896 146.479 56.1141 146.276 55.5293 145.925C54.9558 145.564 54.5125 145.1 54.1995 144.533C53.8978 143.955 53.7713 143.321 53.8198 142.629C53.8729 141.874 54.1331 141.213 54.6005 140.647C55.0786 140.082 55.693 139.708 56.4436 139.525L56.4201 139.861C55.8733 139.576 55.4624 139.184 55.1875 138.683C54.9133 138.172 54.7956 137.64 54.8344 137.087C54.8755 136.502 55.061 135.991 55.3911 135.554C55.7211 135.117 56.1456 134.784 56.6643 134.553C57.1945 134.312 57.7788 134.214 58.4172 134.259C59.0663 134.304 59.6315 134.478 60.113 134.779C60.5951 135.069 60.9635 135.459 61.2179 135.947C61.4837 136.425 61.5957 136.963 61.5539 137.558C61.512 138.154 61.3151 138.675 60.963 139.121C60.6117 139.556 60.1667 139.878 59.6282 140.086L59.6357 139.749C60.3535 140.035 60.9043 140.491 61.2881 141.117C61.6825 141.743 61.8532 142.434 61.8002 143.189C61.7516 143.881 61.5324 144.491 61.1424 145.02C60.7638 145.539 60.2601 145.936 59.6312 146.213C59.0136 146.48 58.3218 146.586 57.5557 146.532ZM57.6341 145.415C58.1768 145.453 58.6574 145.385 59.0759 145.212C59.4952 145.027 59.8296 144.757 60.0792 144.4C60.3402 144.033 60.4882 143.6 60.5233 143.1C60.5584 142.6 60.472 142.155 60.2641 141.766C60.0675 141.368 59.7741 141.053 59.384 140.822C58.9946 140.581 58.5286 140.442 57.9859 140.404C57.4432 140.365 56.9569 140.438 56.527 140.622C56.1085 140.796 55.7741 141.066 55.5237 141.434C55.2741 141.79 55.1318 142.219 55.0967 142.719C55.0616 143.219 55.1423 143.668 55.3389 144.067C55.5362 144.455 55.8295 144.77 56.2189 145.011C56.6197 145.242 57.0915 145.377 57.6341 145.415ZM58.0643 139.286C58.458 139.314 58.8148 139.259 59.1345 139.121C59.4551 138.972 59.7158 138.761 59.9169 138.486C60.1293 138.202 60.2494 137.862 60.277 137.469C60.3046 137.075 60.2328 136.728 60.0614 136.427C59.9007 136.127 59.6717 135.886 59.3743 135.705C59.0777 135.513 58.7325 135.404 58.3388 135.376C57.9451 135.348 57.5827 135.408 57.2515 135.556C56.9317 135.694 56.666 135.9 56.4543 136.174C56.2532 136.449 56.1389 136.783 56.1113 137.176C56.0836 137.57 56.1498 137.922 56.3098 138.233C56.4811 138.534 56.7151 138.78 57.0118 138.972C57.3198 139.154 57.6706 139.259 58.0643 139.286Z" fill="black"/>
<path d="M91.6861 148.736L91.7421 147.938L95.3185 144.516C96.0176 143.848 96.5857 143.295 97.0229 142.855C97.4708 142.416 97.8092 142.012 98.0383 141.643C98.2673 141.274 98.3976 140.866 98.4289 140.419C98.479 139.706 98.3099 139.144 97.9219 138.732C97.5338 138.32 96.9939 138.089 96.3023 138.041C95.5894 137.991 94.974 138.151 94.4561 138.521C93.9489 138.891 93.5848 139.432 93.3638 140.144L92.2166 139.807C92.4005 139.168 92.6897 138.626 93.0844 138.184C93.479 137.741 93.9566 137.411 94.5172 137.194C95.0785 136.966 95.6944 136.875 96.3647 136.922C97.0776 136.972 97.69 137.16 98.2019 137.484C98.7137 137.809 99.1011 138.232 99.3639 138.753C99.6374 139.275 99.7513 139.86 99.7058 140.509C99.6744 140.956 99.5484 141.38 99.3277 141.782C99.1177 142.184 98.8097 142.611 98.4037 143.064C97.9977 143.517 97.4796 144.042 96.8496 144.639L93.6 147.747L99.4895 148.161L99.4111 149.278L91.6861 148.736ZM105.01 149.863C104.392 149.82 103.831 149.674 103.324 149.424C102.818 149.175 102.381 148.839 102.015 148.418C101.66 147.998 101.4 147.509 101.236 146.952L102.291 146.545C102.493 147.179 102.841 147.696 103.337 148.094C103.834 148.482 104.418 148.699 105.088 148.746C105.62 148.783 106.101 148.716 106.53 148.543C106.96 148.359 107.306 148.078 107.567 147.701C107.829 147.324 107.98 146.853 108.019 146.289C108.059 145.725 107.97 145.238 107.753 144.827C107.546 144.417 107.243 144.096 106.842 143.865C106.441 143.634 105.975 143.499 105.443 143.462C105.305 143.452 105.15 143.447 104.979 143.445C104.819 143.445 104.684 143.451 104.576 143.465L104.36 142.889L107.854 139.044L102.38 138.66L102.458 137.542L109.369 138.028L109.291 139.145L106.024 142.717L105.879 142.498C106.591 142.569 107.212 142.784 107.743 143.142C108.275 143.49 108.676 143.94 108.947 144.494C109.229 145.048 109.345 145.677 109.296 146.379C109.247 147.081 109.032 147.708 108.651 148.258C108.271 148.798 107.766 149.217 107.135 149.515C106.505 149.803 105.797 149.919 105.01 149.863ZM112.946 150.228L113.702 139.454L111.467 139.298L111.546 138.18L115.057 138.427L114.222 150.318L112.946 150.228ZM120.659 150.962C120.041 150.918 119.48 150.772 118.973 150.523C118.467 150.273 118.03 149.938 117.664 149.517C117.309 149.096 117.049 148.607 116.885 148.05L117.94 147.643C118.142 148.278 118.49 148.794 118.986 149.192C119.483 149.58 120.067 149.797 120.737 149.844C121.269 149.882 121.75 149.814 122.179 149.641C122.609 149.457 122.955 149.177 123.216 148.8C123.478 148.422 123.629 147.952 123.668 147.388C123.708 146.824 123.619 146.336 123.402 145.925C123.195 145.515 122.892 145.195 122.491 144.963C122.09 144.732 121.624 144.598 121.092 144.56C120.954 144.551 120.799 144.545 120.628 144.544C120.468 144.543 120.333 144.55 120.225 144.564L120.009 143.987L123.503 140.142L118.029 139.758L118.107 138.641L125.018 139.126L124.94 140.243L121.673 143.815L121.528 143.597C122.24 143.668 122.861 143.883 123.392 144.241C123.924 144.588 124.325 145.039 124.596 145.592C124.878 146.147 124.994 146.775 124.945 147.477C124.896 148.18 124.681 148.806 124.3 149.357C123.92 149.897 123.415 150.316 122.784 150.614C122.154 150.901 121.446 151.017 120.659 150.962Z" fill="black"/>
<path d="M160.447 153.755C159.511 153.689 158.704 153.376 158.027 152.815C157.362 152.244 156.864 151.487 156.535 150.545C156.206 149.591 156.084 148.503 156.17 147.279C156.256 146.056 156.528 145 156.986 144.113C157.445 143.214 158.043 142.535 158.781 142.073C159.519 141.612 160.357 141.414 161.293 141.48C162.229 141.545 163.031 141.858 163.697 142.418C164.364 142.978 164.861 143.735 165.19 144.688C165.519 145.631 165.641 146.714 165.555 147.938C165.469 149.162 165.197 150.222 164.738 151.121C164.29 152.019 163.697 152.7 162.959 153.161C162.221 153.622 161.384 153.82 160.447 153.755ZM160.531 152.558C161.212 152.605 161.823 152.44 162.363 152.061C162.903 151.681 163.342 151.135 163.681 150.421C164.02 149.696 164.225 148.839 164.294 147.849C164.364 146.86 164.281 145.988 164.045 145.234C163.81 144.469 163.451 143.866 162.969 143.426C162.487 142.975 161.901 142.725 161.209 142.677C160.528 142.629 159.918 142.795 159.378 143.174C158.839 143.542 158.399 144.089 158.06 144.813C157.721 145.527 157.517 146.379 157.447 147.369C157.378 148.348 157.462 149.22 157.697 149.985C157.932 150.75 158.29 151.358 158.772 151.808C159.264 152.26 159.85 152.51 160.531 152.558ZM173.077 154.449L173.274 151.639L167.225 151.215L167.297 150.177L173.911 142.558L175.028 142.636L174.464 150.68L175.916 150.782L175.843 151.82L174.391 151.718L174.194 154.527L173.077 154.449ZM168.239 150.709L168.127 150.236L173.347 150.602L173.834 143.659L174.225 143.799L168.239 150.709ZM182.191 155.281C181.254 155.215 180.448 154.902 179.771 154.341C179.105 153.77 178.607 153.014 178.278 152.071C177.949 151.118 177.828 150.029 177.914 148.805C178 147.582 178.271 146.526 178.729 145.639C179.188 144.741 179.786 144.061 180.525 143.599C181.263 143.138 182.1 142.94 183.036 143.006C183.973 143.072 184.774 143.384 185.441 143.945C186.107 144.505 186.605 145.261 186.933 146.215C187.263 147.157 187.384 148.241 187.299 149.464C187.213 150.688 186.94 151.749 186.482 152.647C186.034 153.546 185.441 154.226 184.703 154.687C183.964 155.149 183.127 155.347 182.191 155.281ZM182.275 154.084C182.956 154.132 183.566 153.966 184.106 153.587C184.646 153.208 185.085 152.661 185.424 151.947C185.764 151.222 185.968 150.365 186.038 149.376C186.107 148.386 186.024 147.514 185.788 146.76C185.553 145.995 185.195 145.392 184.712 144.952C184.231 144.501 183.644 144.251 182.952 144.203C182.271 144.155 181.661 144.321 181.121 144.7C180.582 145.068 180.143 145.615 179.803 146.34C179.464 147.054 179.26 147.905 179.191 148.895C179.122 149.874 179.205 150.746 179.44 151.511C179.675 152.276 180.033 152.884 180.515 153.335C181.007 153.786 181.594 154.036 182.275 154.084ZM194.82 155.975L195.017 153.166L188.968 152.741L189.041 151.704L195.655 144.084L196.772 144.162L196.207 152.207L197.66 152.309L197.587 153.346L196.134 153.244L195.937 156.053L194.82 155.975ZM189.982 152.235L189.871 151.762L195.09 152.128L195.577 145.185L195.968 145.325L189.982 152.235Z" fill="black"/>
<path d="M229.315 158.396L230.072 147.623L227.837 147.466L227.916 146.348L231.427 146.595L230.592 158.486L229.315 158.396ZM236.968 159.126C236.223 159.073 235.575 158.862 235.024 158.492C234.473 158.111 234.054 157.617 233.765 157.008C233.477 156.389 233.36 155.697 233.413 154.93C233.443 154.505 233.521 154.088 233.646 153.68C233.781 153.272 233.964 152.873 234.195 152.483C234.436 152.094 234.72 151.707 235.046 151.324L238.71 147.106L240.242 147.214L235.729 152.334L235.479 152.461C235.658 152.206 235.858 152.017 236.081 151.894C236.304 151.76 236.545 151.67 236.805 151.624C237.076 151.579 237.36 151.567 237.658 151.587C238.349 151.636 238.96 151.845 239.491 152.213C240.021 152.571 240.427 153.044 240.706 153.63C240.997 154.217 241.116 154.883 241.063 155.628C241.013 156.341 240.798 156.973 240.417 157.523C240.048 158.064 239.564 158.479 238.966 158.769C238.368 159.058 237.703 159.177 236.968 159.126ZM237.047 158.008C237.536 158.043 237.98 157.962 238.379 157.765C238.779 157.558 239.104 157.26 239.356 156.871C239.608 156.483 239.751 156.038 239.786 155.538C239.822 155.027 239.742 154.567 239.546 154.158C239.361 153.749 239.085 153.42 238.718 153.17C238.351 152.909 237.918 152.761 237.418 152.725C236.928 152.691 236.478 152.777 236.068 152.984C235.669 153.18 235.345 153.467 235.093 153.845C234.853 154.224 234.715 154.669 234.679 155.18C234.644 155.68 234.724 156.14 234.919 156.56C235.114 156.98 235.395 157.32 235.761 157.581C236.129 157.832 236.557 157.974 237.047 158.008ZM247.561 159.869C246.625 159.804 245.818 159.49 245.141 158.929C244.475 158.359 243.978 157.602 243.648 156.659C243.32 155.706 243.198 154.618 243.284 153.394C243.37 152.17 243.642 151.115 244.1 150.227C244.558 149.329 245.157 148.649 245.895 148.188C246.633 147.726 247.47 147.529 248.407 147.594C249.343 147.66 250.144 147.973 250.811 148.533C251.477 149.093 251.975 149.85 252.304 150.803C252.633 151.746 252.755 152.829 252.669 154.053C252.583 155.276 252.311 156.337 251.852 157.235C251.404 158.134 250.811 158.814 250.073 159.276C249.335 159.737 248.498 159.935 247.561 159.869ZM247.645 158.672C248.326 158.72 248.937 158.554 249.476 158.175C250.016 157.796 250.456 157.249 250.795 156.535C251.134 155.811 251.339 154.954 251.408 153.964C251.478 152.975 251.394 152.103 251.159 151.348C250.924 150.583 250.565 149.981 250.083 149.54C249.601 149.09 249.014 148.84 248.323 148.791C247.642 148.744 247.031 148.909 246.491 149.288C245.952 149.657 245.513 150.203 245.173 150.928C244.835 151.642 244.63 152.494 244.561 153.483C244.492 154.462 244.575 155.334 244.81 156.099C245.045 156.864 245.404 157.472 245.885 157.923C246.378 158.375 246.964 158.624 247.645 158.672ZM258.214 160.617C257.597 160.574 257.029 160.427 256.512 160.177C256.006 159.927 255.57 159.592 255.204 159.171C254.838 158.749 254.572 158.26 254.408 157.703L255.416 157.293C255.617 157.927 255.982 158.445 256.51 158.845C257.049 159.236 257.643 159.454 258.292 159.5C258.813 159.536 259.285 159.446 259.706 159.23C260.139 159.014 260.486 158.707 260.75 158.309C261.013 157.9 261.164 157.434 261.2 156.913C261.238 156.37 261.15 155.883 260.934 155.451C260.729 155.019 260.433 154.672 260.045 154.41C259.658 154.137 259.209 153.982 258.698 153.946C258.177 153.91 257.684 153.998 257.22 154.212C256.767 154.415 256.428 154.68 256.202 155.006L255.21 154.744L256.556 148.359L262.573 148.781L262.495 149.898L256.94 149.509L257.465 149.112L256.391 154.137L255.912 153.879C256.316 153.448 256.775 153.154 257.289 152.998C257.803 152.83 258.321 152.765 258.842 152.802C259.609 152.856 260.272 153.084 260.831 153.487C261.392 153.879 261.816 154.385 262.104 155.004C262.404 155.613 262.528 156.279 262.477 157.003C262.426 157.737 262.203 158.39 261.81 158.961C261.429 159.522 260.923 159.952 260.293 160.25C259.673 160.548 258.98 160.671 258.214 160.617Z" fill="black"/>
<path d="M3.78101 159.607L329.978 182.504L327.878 212.43C326.95 225.652 315.479 235.619 302.256 234.691L23.9411 215.155C10.7188 214.227 0.752337 202.756 1.68043 189.534L3.78101 159.607Z" fill="black"/>
<path d="M22.676 195.017L23.5107 183.126L31.0441 183.655L30.9433 185.092L24.974 184.673L24.704 188.519L30.1147 188.899L30.0139 190.336L24.6032 189.956L24.2402 195.127L22.676 195.017ZM34.6849 196.053C34.0677 196.009 33.5192 195.826 33.0393 195.504C32.57 195.182 32.2149 194.756 31.9741 194.226C31.7447 193.686 31.6535 193.081 31.7006 192.411L32.0781 187.032L33.5625 187.136L33.1961 192.355C33.1662 192.781 33.2252 193.159 33.3731 193.49C33.5316 193.822 33.7587 194.09 34.0546 194.292C34.3611 194.495 34.7166 194.611 35.1209 194.64C35.5252 194.668 35.888 194.603 36.2093 194.443C36.5412 194.285 36.8043 194.041 36.9984 193.713C37.2032 193.385 37.322 192.987 37.3549 192.519L37.7123 187.427L39.2126 187.533L38.6087 196.136L37.1563 196.034L37.2739 194.358L37.5032 194.518C37.263 195.047 36.8873 195.448 36.3762 195.722C35.8764 195.987 35.3127 196.097 34.6849 196.053ZM40.9083 196.297L41.7564 184.215L43.2407 184.319L42.3927 196.401L40.9083 196.297ZM47.2042 196.931C46.6403 196.892 46.1473 196.756 45.7252 196.523C45.3145 196.28 44.9995 195.969 44.7802 195.59C44.5616 195.201 44.4691 194.767 44.5027 194.288C44.5348 193.83 44.6593 193.427 44.8762 193.079C45.1046 192.721 45.4352 192.428 45.8681 192.202C46.3116 191.977 46.8563 191.833 47.5022 191.772L50.7313 191.469L50.644 192.714L47.7534 192.992C47.1934 193.049 46.7767 193.196 46.5034 193.434C46.2407 193.672 46.0963 193.977 46.0702 194.35C46.0456 194.701 46.1633 195.003 46.4236 195.257C46.6944 195.511 47.0427 195.653 47.4683 195.683C48.011 195.721 48.487 195.642 48.8964 195.446C49.3171 195.24 49.6531 194.949 49.9041 194.571C50.1659 194.193 50.3135 193.765 50.3471 193.286L50.5006 191.1C50.5335 190.632 50.3844 190.242 50.0535 189.93C49.7339 189.608 49.2921 189.427 48.7282 189.388C48.2387 189.353 47.7935 189.45 47.3925 189.679C47.0029 189.897 46.7031 190.208 46.4931 190.61L45.2473 189.849C45.4346 189.466 45.7146 189.133 46.0874 188.849C46.4609 188.555 46.8881 188.333 47.369 188.185C47.8499 188.037 48.3457 187.981 48.8564 188.017C49.5161 188.063 50.0871 188.232 50.5693 188.522C51.0522 188.802 51.4163 189.175 51.6616 189.642C51.9183 190.098 52.026 190.619 51.985 191.204L51.5749 197.046L50.1225 196.944L50.2368 195.316L50.5014 195.431C50.2966 195.758 50.031 196.039 49.7045 196.273C49.378 196.507 49.002 196.683 48.5766 196.803C48.1511 196.923 47.6937 196.966 47.2042 196.931ZM53.8764 197.207L54.4802 188.604L55.9327 188.706L55.815 190.382L55.5857 190.222C55.8366 189.694 56.2066 189.298 56.6957 189.033C57.1962 188.758 57.7656 188.643 58.4041 188.687C59.0212 188.731 59.5595 188.907 60.0189 189.218C60.4889 189.529 60.8451 189.939 61.0874 190.448C61.3403 190.957 61.4452 191.521 61.4018 192.138L61.0108 197.708L59.5105 197.603L59.8679 192.511C59.9015 192.032 59.8448 191.622 59.6977 191.28C59.5506 190.938 59.3238 190.666 59.0173 190.463C58.7221 190.249 58.3724 190.129 57.9681 190.1C57.5637 190.072 57.1952 190.142 56.8626 190.311C56.5413 190.471 56.2783 190.714 56.0735 191.042C55.8694 191.359 55.751 191.752 55.7181 192.22L55.3607 197.311L53.8764 197.207ZM70.3333 198.555C69.6417 198.506 69.0194 198.308 68.4665 197.959C67.9242 197.61 67.5185 197.144 67.2496 196.558L67.475 196.317L67.3461 198.153L65.8937 198.051L66.7418 185.968L68.2261 186.073L67.8519 191.404L67.6543 191.021C68.0093 190.532 68.474 190.159 69.0482 189.9C69.6232 189.63 70.2671 189.52 70.98 189.57C71.7887 189.627 72.4984 189.874 73.1092 190.313C73.7306 190.752 74.2037 191.325 74.5283 192.033C74.8537 192.729 74.9861 193.508 74.9256 194.37C74.8666 195.211 74.627 195.958 74.2068 196.613C73.7865 197.268 73.2381 197.77 72.5614 198.118C71.8953 198.467 71.1526 198.612 70.3333 198.555ZM70.3224 197.111C70.8651 197.149 71.3586 197.05 71.8028 196.813C72.2471 196.577 72.6024 196.239 72.8686 195.798C73.1462 195.347 73.3051 194.834 73.3455 194.259C73.3873 193.663 73.3015 193.133 73.0882 192.669C72.8862 192.195 72.5817 191.81 72.1748 191.514C71.7686 191.208 71.2942 191.036 70.7515 190.998C70.2088 190.959 69.71 191.058 69.2551 191.294C68.8108 191.53 68.4445 191.873 68.1563 192.323C67.8795 192.763 67.7205 193.276 67.6794 193.861C67.6391 194.436 67.7249 194.966 67.9367 195.451C68.16 195.927 68.4751 196.313 68.882 196.608C69.2996 196.905 69.7797 197.072 70.3224 197.111ZM76.5706 198.8L77.1744 190.197L78.6588 190.302L78.0549 198.904L76.5706 198.8ZM77.2708 188.825L77.4052 186.909L78.8895 187.014L78.7551 188.929L77.2708 188.825ZM80.3581 199.066L80.962 190.463L82.4144 190.565L82.2968 192.241L82.0674 192.081C82.3183 191.553 82.6883 191.156 83.1774 190.891C83.6779 190.616 84.2474 190.501 84.8858 190.546C85.5029 190.589 86.0412 190.766 86.5006 191.077C86.9707 191.388 87.3268 191.797 87.5691 192.306C87.8221 192.816 87.9269 193.379 87.8836 193.997L87.4926 199.567L85.9923 199.461L86.3496 194.37C86.3832 193.891 86.3265 193.481 86.1794 193.139C86.0323 192.797 85.8055 192.525 85.499 192.321C85.2039 192.108 84.8541 191.987 84.4498 191.959C84.0454 191.931 83.6769 192.001 83.3443 192.17C83.023 192.329 82.76 192.573 82.5552 192.901C82.3512 193.218 82.2327 193.611 82.1998 194.079L81.8425 199.17L80.3581 199.066ZM92.3754 199.91L92.9793 191.307L94.4317 191.409L94.3208 192.989L94.1769 192.754C94.4134 192.279 94.7474 191.939 95.1788 191.734C95.6109 191.518 96.1249 191.431 96.7208 191.473L97.2475 191.51L97.1489 192.915L96.3988 192.862C95.7923 192.819 95.2894 192.977 94.8901 193.333C94.4915 193.68 94.2679 194.199 94.2194 194.89L93.8598 200.014L92.3754 199.91ZM100.464 200.67C99.8999 200.63 99.4068 200.494 98.9848 200.261C98.5741 200.018 98.2591 199.708 98.0397 199.329C97.8212 198.939 97.7287 198.505 97.7623 198.026C97.7944 197.569 97.9189 197.166 98.1358 196.817C98.3641 196.459 98.6947 196.167 99.1277 195.941C99.5712 195.715 100.116 195.572 100.762 195.51L103.991 195.207L103.904 196.452L101.013 196.731C100.453 196.787 100.036 196.935 99.763 197.172C99.5003 197.41 99.3559 197.716 99.3298 198.088C99.3051 198.439 99.4229 198.741 99.6832 198.995C99.954 199.249 100.302 199.391 100.728 199.421C101.271 199.459 101.747 199.38 102.156 199.185C102.577 198.979 102.913 198.687 103.164 198.309C103.425 197.932 103.573 197.504 103.607 197.025L103.76 194.838C103.793 194.37 103.644 193.98 103.313 193.668C102.993 193.346 102.552 193.166 101.988 193.126C101.498 193.092 101.053 193.189 100.652 193.417C100.262 193.636 99.9627 193.946 99.7527 194.348L98.5069 193.587C98.6941 193.205 98.9742 192.872 99.347 192.588C99.7205 192.293 100.148 192.072 100.629 191.924C101.109 191.776 101.605 191.72 102.116 191.756C102.776 191.802 103.347 191.97 103.829 192.261C104.312 192.541 104.676 192.914 104.921 193.38C105.178 193.836 105.286 194.357 105.245 194.942L104.835 200.784L103.382 200.682L103.496 199.054L103.761 199.169C103.556 199.497 103.291 199.777 102.964 200.011C102.638 200.245 102.262 200.422 101.836 200.542C101.411 200.661 100.953 200.704 100.464 200.67ZM111.576 201.45C110.884 201.401 110.262 201.202 109.709 200.854C109.166 200.505 108.761 200.038 108.492 199.453L108.717 199.212L108.588 201.048L107.136 200.946L107.984 188.863L109.468 188.968L109.094 194.298L108.897 193.916C109.252 193.427 109.716 193.054 110.29 192.794C110.865 192.525 111.509 192.415 112.222 192.465C113.031 192.522 113.741 192.769 114.351 193.208C114.973 193.647 115.446 194.22 115.771 194.927C116.096 195.624 116.228 196.403 116.168 197.265C116.109 198.106 115.869 198.853 115.449 199.508C115.029 200.163 114.48 200.664 113.804 201.013C113.138 201.362 112.395 201.507 111.576 201.45ZM111.565 200.005C112.107 200.043 112.601 199.944 113.045 199.708C113.489 199.472 113.845 199.134 114.111 198.692C114.388 198.241 114.547 197.729 114.588 197.154C114.63 196.558 114.544 196.028 114.33 195.564C114.128 195.09 113.824 194.705 113.417 194.409C113.011 194.103 112.536 193.931 111.994 193.892C111.451 193.854 110.952 193.953 110.497 194.188C110.053 194.425 109.687 194.768 109.399 195.218C109.122 195.658 108.963 196.171 108.922 196.756C108.881 197.331 108.967 197.861 109.179 198.346C109.402 198.822 109.717 199.207 110.124 199.503C110.542 199.8 111.022 199.967 111.565 200.005ZM122.252 202.199C121.561 202.151 120.939 201.952 120.386 201.603C119.843 201.255 119.438 200.788 119.169 200.202L119.394 199.961L119.265 201.797L117.813 201.695L118.661 189.613L120.145 189.717L119.771 195.048L119.573 194.665C119.928 194.177 120.393 193.803 120.967 193.544C121.542 193.274 122.186 193.164 122.899 193.214C123.708 193.271 124.418 193.519 125.028 193.957C125.65 194.397 126.123 194.97 126.447 195.677C126.773 196.373 126.905 197.153 126.845 198.014C126.786 198.855 126.546 199.603 126.126 200.258C125.706 200.912 125.157 201.414 124.481 201.762C123.814 202.111 123.072 202.257 122.252 202.199ZM122.242 200.755C122.784 200.793 123.278 200.694 123.722 200.458C124.166 200.222 124.522 199.883 124.788 199.442C125.065 198.991 125.224 198.478 125.265 197.903C125.306 197.308 125.221 196.778 125.007 196.314C124.805 195.84 124.501 195.455 124.094 195.159C123.688 194.852 123.213 194.68 122.671 194.642C122.128 194.604 121.629 194.702 121.174 194.938C120.73 195.174 120.364 195.517 120.075 195.967C119.799 196.408 119.64 196.921 119.599 197.506C119.558 198.08 119.644 198.61 119.856 199.096C120.079 199.571 120.394 199.957 120.801 200.253C121.219 200.549 121.699 200.717 122.242 200.755ZM130.998 202.813C130.434 202.773 129.941 202.637 129.519 202.404C129.108 202.162 128.793 201.851 128.574 201.472C128.355 201.082 128.263 200.648 128.297 200.169C128.329 199.712 128.453 199.309 128.67 198.961C128.898 198.602 129.229 198.31 129.662 198.084C130.105 197.858 130.65 197.715 131.296 197.653L134.525 197.351L134.438 198.595L131.547 198.874C130.987 198.931 130.571 199.078 130.297 199.315C130.035 199.554 129.89 199.859 129.864 200.231C129.839 200.582 129.957 200.885 130.217 201.138C130.488 201.392 130.837 201.535 131.262 201.564C131.805 201.602 132.281 201.524 132.69 201.328C133.111 201.122 133.447 200.83 133.698 200.452C133.96 200.075 134.107 199.647 134.141 199.168L134.294 196.981C134.327 196.513 134.178 196.123 133.847 195.811C133.528 195.489 133.086 195.309 132.522 195.269C132.033 195.235 131.587 195.332 131.186 195.56C130.797 195.779 130.497 196.089 130.287 196.492L129.041 195.731C129.228 195.348 129.508 195.015 129.881 194.731C130.255 194.436 130.682 194.215 131.163 194.067C131.644 193.919 132.14 193.863 132.65 193.899C133.31 193.945 133.881 194.113 134.363 194.404C134.846 194.684 135.21 195.057 135.455 195.523C135.712 195.98 135.82 196.5 135.779 197.086L135.369 202.927L133.916 202.825L134.031 201.197L134.295 201.312C134.09 201.64 133.825 201.921 133.498 202.154C133.172 202.388 132.796 202.565 132.37 202.685C131.945 202.805 131.488 202.847 130.998 202.813ZM137.67 203.089L138.518 191.007L140.003 191.111L139.641 196.266L139.38 196.103C139.63 195.576 140 195.179 140.49 194.914C140.99 194.639 141.559 194.524 142.198 194.569C142.815 194.612 143.353 194.789 143.813 195.099C144.283 195.41 144.639 195.82 144.881 196.329C145.134 196.839 145.239 197.402 145.196 198.019L144.805 203.59L143.304 203.484L143.662 198.393C143.695 197.914 143.633 197.503 143.476 197.161C143.328 196.819 143.107 196.547 142.811 196.344C142.516 196.131 142.166 196.01 141.762 195.982C141.368 195.954 141.005 196.025 140.672 196.194C140.34 196.353 140.072 196.596 139.867 196.924C139.663 197.241 139.545 197.633 139.512 198.102L139.155 203.193L137.67 203.089Z" fill="white"/>
<path d="M229.168 209.511L230.003 197.62L237.744 198.164L237.643 199.6L231.466 199.167L231.202 202.933L237.059 203.345L236.958 204.781L231.101 204.37L230.833 208.185L237.01 208.618L236.909 210.055L229.168 209.511ZM237.698 210.11L241.017 206.012L238.318 201.508L240.106 201.634L242.413 205.549L241.503 205.485L244.303 201.928L246.107 202.055L242.805 206.138L245.487 210.657L243.699 210.531L241.424 206.618L242.318 206.681L239.518 210.238L237.698 210.11ZM246.599 213.943L247.427 202.148L248.88 202.25L248.75 204.101L248.584 203.72C248.939 203.232 249.404 202.858 249.978 202.599C250.553 202.33 251.197 202.22 251.91 202.27C252.719 202.327 253.428 202.574 254.039 203.013C254.66 203.452 255.134 204.025 255.458 204.732C255.783 205.429 255.916 206.208 255.855 207.07C255.796 207.91 255.557 208.658 255.137 209.313C254.716 209.968 254.168 210.469 253.491 210.818C252.825 211.166 252.082 211.312 251.263 211.255C250.572 211.206 249.949 211.007 249.396 210.658C248.854 210.31 248.448 209.843 248.179 209.258L248.437 209.019L248.084 214.047L246.599 213.943ZM251.252 209.81C251.795 209.848 252.288 209.749 252.733 209.513C253.177 209.277 253.532 208.938 253.798 208.497C254.076 208.046 254.235 207.534 254.275 206.959C254.317 206.363 254.231 205.833 254.018 205.369C253.816 204.895 253.512 204.51 253.105 204.214C252.698 203.908 252.224 203.735 251.681 203.697C251.139 203.659 250.64 203.758 250.185 203.993C249.741 204.229 249.374 204.573 249.086 205.023C248.809 205.463 248.65 205.976 248.609 206.561C248.569 207.136 248.655 207.666 248.867 208.151C249.09 208.627 249.405 209.012 249.812 209.308C250.229 209.605 250.71 209.772 251.252 209.81ZM264.89 212.211C263.943 212.145 263.131 211.831 262.454 211.27C261.789 210.7 261.291 209.943 260.962 209C260.633 208.047 260.511 206.958 260.597 205.735C260.683 204.511 260.955 203.455 261.413 202.568C261.872 201.67 262.47 200.99 263.208 200.529C263.946 200.067 264.789 199.87 265.736 199.936C266.683 200.003 267.49 200.316 268.156 200.876C268.822 201.436 269.32 202.193 269.649 203.146C269.989 204.089 270.116 205.173 270.03 206.397C269.944 207.62 269.672 208.681 269.213 209.579C268.755 210.477 268.151 211.157 267.402 211.617C266.664 212.079 265.827 212.277 264.89 212.211ZM264.992 210.759C265.631 210.803 266.197 210.651 266.693 210.301C267.188 209.94 267.589 209.417 267.893 208.733C268.209 208.049 268.399 207.234 268.466 206.287C268.532 205.34 268.457 204.506 268.241 203.785C268.035 203.065 267.705 202.496 267.254 202.08C266.812 201.664 266.272 201.433 265.634 201.389C264.996 201.344 264.429 201.496 263.934 201.847C263.439 202.197 263.033 202.714 262.718 203.397C262.413 204.082 262.228 204.897 262.161 205.844C262.096 206.781 262.166 207.609 262.372 208.329C262.589 209.05 262.917 209.624 263.358 210.05C263.809 210.478 264.354 210.714 264.992 210.759ZM275.674 212.968C274.876 212.912 274.18 212.703 273.585 212.34C273.001 211.978 272.552 211.514 272.239 210.947C271.937 210.369 271.81 209.74 271.858 209.059C271.912 208.293 272.172 207.638 272.638 207.093C273.104 206.548 273.718 206.18 274.48 205.987L274.42 206.384C273.872 206.121 273.455 205.734 273.17 205.222C272.897 204.7 272.78 204.152 272.82 203.577C272.863 202.971 273.05 202.444 273.381 201.996C273.722 201.55 274.163 201.212 274.703 200.983C275.254 200.743 275.865 200.647 276.535 200.694C277.206 200.741 277.792 200.916 278.295 201.219C278.798 201.521 279.181 201.922 279.446 202.422C279.721 202.912 279.838 203.46 279.795 204.067C279.753 204.673 279.55 205.204 279.186 205.66C278.833 206.116 278.383 206.443 277.834 206.64L277.816 206.221C278.554 206.519 279.115 206.976 279.5 207.591C279.885 208.195 280.051 208.875 279.998 209.631C279.95 210.312 279.732 210.916 279.342 211.445C278.963 211.964 278.454 212.361 277.814 212.637C277.185 212.914 276.472 213.024 275.674 212.968ZM275.769 211.611C276.269 211.646 276.712 211.581 277.098 211.416C277.484 211.251 277.79 211.005 278.016 210.678C278.253 210.342 278.388 209.951 278.419 209.504C278.451 209.046 278.373 208.64 278.184 208.284C278.007 207.919 277.738 207.633 277.378 207.426C277.019 207.208 276.59 207.082 276.09 207.047C275.589 207.011 275.141 207.076 274.745 207.241C274.36 207.396 274.054 207.641 273.827 207.978C273.601 208.305 273.472 208.697 273.44 209.154C273.408 209.601 273.481 210.007 273.659 210.373C273.837 210.727 274.106 211.013 274.465 211.231C274.834 211.449 275.269 211.576 275.769 211.611ZM276.185 205.69C276.547 205.715 276.871 205.658 277.159 205.518C277.458 205.378 277.701 205.182 277.89 204.927C278.08 204.663 278.188 204.35 278.213 203.988C278.238 203.626 278.175 203.306 278.024 203.028C277.872 202.75 277.658 202.527 277.381 202.357C277.116 202.178 276.802 202.076 276.44 202.051C276.068 202.025 275.732 202.081 275.434 202.221C275.136 202.35 274.893 202.541 274.704 202.795C274.515 203.049 274.408 203.357 274.382 203.719C274.357 204.081 274.42 204.406 274.571 204.694C274.722 204.972 274.936 205.201 275.212 205.381C275.488 205.561 275.812 205.664 276.185 205.69ZM280.675 215.051L286.961 202.276L288.637 202.394L282.351 215.169L280.675 215.051ZM288.823 213.698L288.899 212.613L292.437 209.285C293.134 208.639 293.69 208.106 294.105 207.686C294.53 207.266 294.845 206.887 295.051 206.549C295.256 206.211 295.373 205.844 295.4 205.451C295.446 204.802 295.29 204.288 294.931 203.91C294.573 203.532 294.08 203.321 293.452 203.277C292.813 203.232 292.258 203.38 291.785 203.721C291.312 204.052 290.968 204.546 290.75 205.205L289.356 204.738C289.539 204.109 289.833 203.574 290.238 203.132C290.643 202.69 291.132 202.36 291.703 202.144C292.274 201.927 292.89 201.842 293.549 201.888C294.273 201.939 294.896 202.127 295.418 202.453C295.952 202.768 296.356 203.187 296.629 203.709C296.914 204.231 297.032 204.822 296.986 205.482C296.956 205.918 296.835 206.337 296.625 206.74C296.415 207.142 296.118 207.565 295.734 208.008C295.351 208.441 294.856 208.941 294.25 209.508L291.089 212.494L296.723 212.89L296.628 214.246L288.823 213.698ZM302.306 214.837C301.54 214.784 300.871 214.566 300.299 214.183C299.738 213.802 299.307 213.306 299.008 212.697C298.709 212.077 298.587 211.39 298.64 210.634C298.669 210.219 298.745 209.813 298.87 209.415C298.994 209.018 299.177 208.619 299.419 208.219C299.661 207.819 299.962 207.407 300.323 206.983L303.984 202.813L305.868 202.946L301.392 207.989L301.107 207.936C301.281 207.735 301.468 207.582 301.668 207.479C301.878 207.376 302.097 207.306 302.324 207.268C302.562 207.231 302.809 207.222 303.064 207.24C303.766 207.289 304.383 207.498 304.913 207.867C305.454 208.226 305.865 208.698 306.145 209.284C306.435 209.872 306.554 210.532 306.503 211.266C306.451 212.001 306.235 212.648 305.853 213.21C305.472 213.76 304.972 214.185 304.352 214.484C303.744 214.773 303.062 214.89 302.306 214.837ZM302.405 213.433C302.852 213.464 303.258 213.391 303.623 213.214C303.989 213.025 304.287 212.752 304.515 212.394C304.754 212.037 304.889 211.629 304.921 211.171C304.955 210.693 304.883 210.271 304.706 209.905C304.529 209.529 304.272 209.223 303.936 208.985C303.6 208.748 303.203 208.613 302.745 208.581C302.299 208.549 301.887 208.627 301.51 208.815C301.133 209.002 300.831 209.27 300.604 209.617C300.377 209.954 300.247 210.362 300.213 210.841C300.181 211.299 300.253 211.721 300.429 212.107C300.616 212.495 300.877 212.807 301.213 213.044C301.561 213.272 301.958 213.401 302.405 213.433Z" fill="white"/>
</g>
<g clip-path="url(#clip2_33_287)">
<rect x="91" y="37" width="327" height="214" rx="24" fill="#8DF326"/>
<path d="M112.106 72V62.074H113.982V70.404H121.444V72H112.106ZM123.18 72V63.726H125.028V72H123.18ZM123.18 62.466V60.8H125.028V62.466H123.18ZM127.227 72V63.726H129.187V65.518C130.251 64.188 131.889 63.446 134.017 63.446C136.677 63.446 138.301 64.524 138.301 67.786V72H136.341V68.444C136.341 66.008 135.389 65.084 133.135 65.084C130.797 65.084 129.187 66.358 129.187 68.514V72H127.227ZM145.8 72.28C142.216 72.28 140.032 70.642 140.032 67.87C140.032 65.098 142.258 63.446 145.702 63.446C149.174 63.446 151.288 65.154 151.288 68.542H142.034C142.314 70.012 143.658 70.796 145.856 70.796C147.662 70.796 148.88 70.236 149.244 69.284H151.162C150.658 71.16 148.824 72.28 145.8 72.28ZM142.062 67.1H149.286C148.95 65.588 147.718 64.916 145.716 64.916C143.7 64.916 142.398 65.616 142.062 67.1ZM162.004 67.016C162.004 65.476 160.898 65.084 158.812 65.084C157.384 65.084 155.9 65.42 153.926 65.938L153.646 64.216C155.564 63.712 157.426 63.446 159.078 63.446C162.494 63.446 163.95 64.58 163.95 67.282V72H162.004V70.992C160.464 71.818 158.644 72.294 156.908 72.294C154.36 72.294 152.974 71.3 152.974 69.508C152.974 67.604 154.64 66.596 157.608 66.596C158.952 66.596 160.464 66.82 162.004 67.226V67.016ZM155.004 69.382C155.004 70.404 155.816 70.936 157.37 70.936C158.728 70.936 160.324 70.488 162.004 69.69V68.598C160.128 68.136 159.176 67.982 157.664 67.982C155.844 67.982 155.004 68.36 155.004 69.382Z" fill="black"/>
<rect x="111.5" y="98.5" width="43" height="30" rx="5.5" fill="#F5E97C" stroke="black"/>
<path d="M112 120H141.463H142.716H154" stroke="black"/>
<path d="M112 108H127.433H128.09H132" stroke="black"/>
<path d="M140 108H149.821H150.239H154" stroke="black"/>
<path d="M140 107L140 116.119L140 116.507L140 120" stroke="black"/>
<path d="M123 108L123 116.418L123 116.776L123 120" stroke="black"/>
<path d="M132 103L132 107.209L132 107.388L132 108.5" stroke="black"/>
<path d="M138 98.5L133.408 102.507L133.213 102.698L132 103.889" stroke="black"/>
<path d="M126 98.5L130.549 102.549L130.743 102.743L131.945 103.945" stroke="black"/>
<path d="M140 124.5L140 120.291L140 120.112L140 119" stroke="black"/>
<path d="M134 128.5L138.592 124.993L138.787 124.802L140 123.611" stroke="black"/>
<path d="M146 128.5L141.451 124.951L141.257 124.757L140.055 123.555" stroke="black"/>
<path d="M355.314 76.9882L358.652 57.4002H363.991L360.651 76.9882H355.314Z" fill="black"/>
<path d="M379.94 57.8227C378.882 57.4259 377.225 57 375.155 57C369.879 57 366.163 59.6567 366.131 63.4643C366.101 66.2788 368.784 67.849 370.809 68.7859C372.888 69.7462 373.586 70.3585 373.576 71.2157C373.563 72.5288 371.917 73.1284 370.382 73.1284C368.245 73.1284 367.11 72.8316 365.356 72.1004L364.668 71.789L363.919 76.174C365.166 76.7209 367.472 77.1945 369.866 77.2191C375.479 77.2191 379.122 74.5927 379.164 70.5267C379.183 68.2984 377.761 66.6027 374.681 65.2047C372.815 64.2986 371.672 63.6939 371.684 62.7764C371.684 61.9622 372.651 61.0915 374.742 61.0915C376.487 61.0644 377.752 61.4452 378.738 61.842L379.216 62.068L379.94 57.8227Z" fill="black"/>
<path d="M393.679 57.4001H389.553C388.275 57.4001 387.319 57.7489 386.757 59.0245L378.828 76.9754H384.435C384.435 76.9754 385.351 74.5619 385.559 74.0319C386.171 74.0319 391.618 74.0403 392.396 74.0403C392.556 74.7261 393.046 76.9754 393.046 76.9754H398L393.679 57.4001ZM387.133 70.0485C387.575 68.9199 389.26 64.5728 389.26 64.5728C389.229 64.6249 389.699 63.4387 389.968 62.7033L390.329 64.3921C390.329 64.3921 391.351 69.0678 391.565 70.0482H387.133V70.0485Z" fill="black"/>
<path d="M332.068 57.4002L332 57.8077C334.111 58.3186 335.996 59.0581 337.646 59.9779L342.383 76.9568L348.032 76.9506L356.438 57.4002H350.782L345.555 70.7578L344.998 68.0431C344.972 67.9592 344.944 67.8752 344.915 67.791L343.097 59.0539C342.774 57.8136 341.837 57.4434 340.677 57.4002H332.068Z" fill="black"/>
<rect x="351.267" y="-63.8619" width="38.2699" height="221.562" transform="rotate(7.2198 351.267 -63.8619)" fill="white"/>
<rect x="433.033" y="-32.9757" width="38.2699" height="221.562" transform="rotate(52.2198 433.033 -32.9757)" fill="white"/>
<rect x="471.405" y="45.5631" width="38.2699" height="221.562" transform="rotate(97.2198 471.405 45.5631)" fill="white"/>
<rect x="444.588" y="125.834" width="38.2699" height="221.562" transform="rotate(142.22 444.588 125.834)" fill="white"/>
<path d="M113.896 180V169.2H111.656V168.08H115.176V180H113.896ZM121.962 180.192C121.194 180.192 120.506 180.037 119.898 179.728C119.3 179.408 118.826 178.976 118.474 178.432C118.132 177.877 117.962 177.253 117.962 176.56C117.962 175.803 118.175 175.125 118.602 174.528C119.039 173.931 119.626 173.515 120.362 173.28V173.616C119.796 173.371 119.359 173.008 119.049 172.528C118.74 172.037 118.586 171.515 118.586 170.96C118.586 170.373 118.735 169.851 119.034 169.392C119.332 168.933 119.732 168.571 120.234 168.304C120.746 168.027 121.322 167.888 121.962 167.888C122.612 167.888 123.188 168.021 123.69 168.288C124.191 168.544 124.586 168.907 124.874 169.376C125.172 169.835 125.322 170.363 125.322 170.96C125.322 171.557 125.162 172.091 124.842 172.56C124.522 173.019 124.1 173.371 123.578 173.616L123.562 173.28C124.298 173.515 124.879 173.931 125.306 174.528C125.743 175.125 125.962 175.803 125.962 176.56C125.962 177.253 125.786 177.877 125.434 178.432C125.092 178.976 124.618 179.408 124.01 179.728C123.412 180.037 122.73 180.192 121.962 180.192ZM121.962 179.072C122.506 179.072 122.98 178.971 123.386 178.768C123.791 178.555 124.106 178.261 124.33 177.888C124.564 177.504 124.682 177.061 124.682 176.56C124.682 176.059 124.564 175.621 124.33 175.248C124.106 174.864 123.791 174.571 123.386 174.368C122.98 174.155 122.506 174.048 121.962 174.048C121.418 174.048 120.938 174.155 120.522 174.368C120.116 174.571 119.802 174.864 119.578 175.248C119.354 175.621 119.242 176.059 119.242 176.56C119.242 177.061 119.354 177.504 119.578 177.888C119.802 178.261 120.116 178.555 120.522 178.768C120.938 178.971 121.418 179.072 121.962 179.072ZM121.962 172.928C122.356 172.928 122.708 172.848 123.018 172.688C123.327 172.517 123.572 172.288 123.754 172C123.946 171.701 124.042 171.355 124.042 170.96C124.042 170.565 123.946 170.224 123.754 169.936C123.572 169.648 123.327 169.424 123.018 169.264C122.708 169.093 122.356 169.008 121.962 169.008C121.567 169.008 121.21 169.093 120.89 169.264C120.58 169.424 120.33 169.648 120.138 169.936C119.956 170.224 119.866 170.565 119.866 170.96C119.866 171.355 119.956 171.701 120.138 172C120.33 172.288 120.58 172.517 120.89 172.688C121.21 172.848 121.567 172.928 121.962 172.928ZM132.856 180.192C131.918 180.192 131.091 179.936 130.376 179.424C129.672 178.901 129.123 178.181 128.728 177.264C128.334 176.336 128.136 175.259 128.136 174.032C128.136 172.805 128.334 171.733 128.728 170.816C129.123 169.888 129.672 169.168 130.376 168.656C131.08 168.144 131.902 167.888 132.84 167.888C133.779 167.888 134.6 168.144 135.304 168.656C136.008 169.168 136.558 169.888 136.952 170.816C137.347 171.733 137.544 172.805 137.544 174.032C137.544 175.259 137.347 176.336 136.952 177.264C136.568 178.192 136.024 178.912 135.32 179.424C134.616 179.936 133.795 180.192 132.856 180.192ZM132.856 178.992C133.539 178.992 134.136 178.784 134.648 178.368C135.16 177.952 135.56 177.376 135.848 176.64C136.136 175.893 136.28 175.024 136.28 174.032C136.28 173.04 136.136 172.176 135.848 171.44C135.56 170.693 135.16 170.117 134.648 169.712C134.136 169.296 133.534 169.088 132.84 169.088C132.158 169.088 131.56 169.296 131.048 169.712C130.536 170.117 130.136 170.693 129.848 171.44C129.56 172.176 129.416 173.04 129.416 174.032C129.416 175.013 129.56 175.877 129.848 176.624C130.136 177.371 130.536 177.952 131.048 178.368C131.571 178.784 132.174 178.992 132.856 178.992ZM143.727 180.192C142.959 180.192 142.271 180.037 141.663 179.728C141.066 179.408 140.591 178.976 140.239 178.432C139.898 177.877 139.727 177.253 139.727 176.56C139.727 175.803 139.94 175.125 140.367 174.528C140.804 173.931 141.391 173.515 142.127 173.28V173.616C141.562 173.371 141.124 173.008 140.815 172.528C140.506 172.037 140.351 171.515 140.351 170.96C140.351 170.373 140.5 169.851 140.799 169.392C141.098 168.933 141.498 168.571 141.999 168.304C142.511 168.027 143.087 167.888 143.727 167.888C144.378 167.888 144.954 168.021 145.455 168.288C145.956 168.544 146.351 168.907 146.639 169.376C146.938 169.835 147.087 170.363 147.087 170.96C147.087 171.557 146.927 172.091 146.607 172.56C146.287 173.019 145.866 173.371 145.343 173.616L145.327 173.28C146.063 173.515 146.644 173.931 147.071 174.528C147.508 175.125 147.727 175.803 147.727 176.56C147.727 177.253 147.551 177.877 147.199 178.432C146.858 178.976 146.383 179.408 145.775 179.728C145.178 180.037 144.495 180.192 143.727 180.192ZM143.727 179.072C144.271 179.072 144.746 178.971 145.151 178.768C145.556 178.555 145.871 178.261 146.095 177.888C146.33 177.504 146.447 177.061 146.447 176.56C146.447 176.059 146.33 175.621 146.095 175.248C145.871 174.864 145.556 174.571 145.151 174.368C144.746 174.155 144.271 174.048 143.727 174.048C143.183 174.048 142.703 174.155 142.287 174.368C141.882 174.571 141.567 174.864 141.343 175.248C141.119 175.621 141.007 176.059 141.007 176.56C141.007 177.061 141.119 177.504 141.343 177.888C141.567 178.261 141.882 178.555 142.287 178.768C142.703 178.971 143.183 179.072 143.727 179.072ZM143.727 172.928C144.122 172.928 144.474 172.848 144.783 172.688C145.092 172.517 145.338 172.288 145.519 172C145.711 171.701 145.807 171.355 145.807 170.96C145.807 170.565 145.711 170.224 145.519 169.936C145.338 169.648 145.092 169.424 144.783 169.264C144.474 169.093 144.122 169.008 143.727 169.008C143.332 169.008 142.975 169.093 142.655 169.264C142.346 169.424 142.095 169.648 141.903 169.936C141.722 170.224 141.631 170.565 141.631 170.96C141.631 171.355 141.722 171.701 141.903 172C142.095 172.288 142.346 172.517 142.655 172.688C142.975 172.848 143.332 172.928 143.727 172.928Z" fill="black"/>
<path d="M177.928 180V179.2L181.256 175.536C181.907 174.821 182.435 174.229 182.84 173.76C183.256 173.291 183.565 172.864 183.768 172.48C183.971 172.096 184.072 171.68 184.072 171.232C184.072 170.517 183.864 169.968 183.448 169.584C183.032 169.2 182.477 169.008 181.784 169.008C181.069 169.008 180.467 169.211 179.976 169.616C179.496 170.021 179.171 170.587 179 171.312L177.832 171.056C177.971 170.405 178.221 169.845 178.584 169.376C178.947 168.907 179.4 168.544 179.944 168.288C180.488 168.021 181.096 167.888 181.768 167.888C182.483 167.888 183.107 168.032 183.64 168.32C184.173 168.608 184.589 169.003 184.888 169.504C185.197 170.005 185.352 170.581 185.352 171.232C185.352 171.68 185.256 172.112 185.064 172.528C184.883 172.944 184.605 173.392 184.232 173.872C183.859 174.352 183.379 174.912 182.792 175.552L179.768 178.88H185.672V180H177.928ZM191.298 180.192C190.679 180.192 190.108 180.085 189.586 179.872C189.063 179.659 188.604 179.355 188.21 178.96C187.826 178.565 187.532 178.096 187.33 177.552L188.354 177.072C188.599 177.691 188.983 178.181 189.506 178.544C190.028 178.896 190.626 179.072 191.298 179.072C191.831 179.072 192.306 178.971 192.722 178.768C193.138 178.555 193.463 178.251 193.698 177.856C193.932 177.461 194.05 176.981 194.05 176.416C194.05 175.851 193.927 175.371 193.682 174.976C193.447 174.581 193.122 174.283 192.706 174.08C192.29 173.877 191.815 173.776 191.282 173.776C191.143 173.776 190.988 173.781 190.818 173.792C190.658 173.803 190.524 173.819 190.418 173.84L190.162 173.28L193.378 169.2H187.89V168.08H194.818V169.2L191.81 172.992L191.65 172.784C192.364 172.805 192.999 172.976 193.554 173.296C194.108 173.605 194.54 174.027 194.85 174.56C195.17 175.093 195.33 175.712 195.33 176.416C195.33 177.12 195.159 177.76 194.818 178.336C194.476 178.901 194.002 179.355 193.394 179.696C192.786 180.027 192.087 180.192 191.298 180.192ZM199.24 180V169.2H197V168.08H200.52V180H199.24ZM206.985 180.192C206.367 180.192 205.796 180.085 205.273 179.872C204.751 179.659 204.292 179.355 203.897 178.96C203.513 178.565 203.22 178.096 203.017 177.552L204.041 177.072C204.287 177.691 204.671 178.181 205.193 178.544C205.716 178.896 206.313 179.072 206.985 179.072C207.519 179.072 207.993 178.971 208.409 178.768C208.825 178.555 209.151 178.251 209.385 177.856C209.62 177.461 209.737 176.981 209.737 176.416C209.737 175.851 209.615 175.371 209.369 174.976C209.135 174.581 208.809 174.283 208.393 174.08C207.977 173.877 207.503 173.776 206.969 173.776C206.831 173.776 206.676 173.781 206.505 173.792C206.345 173.803 206.212 173.819 206.105 173.84L205.849 173.28L209.065 169.2H203.577V168.08H210.505V169.2L207.497 172.992L207.337 172.784C208.052 172.805 208.687 172.976 209.241 173.296C209.796 173.605 210.228 174.027 210.537 174.56C210.857 175.093 211.017 175.712 211.017 176.416C211.017 177.12 210.847 177.76 210.505 178.336C210.164 178.901 209.689 179.355 209.081 179.696C208.473 180.027 207.775 180.192 206.985 180.192Z" fill="black"/>
<path d="M246.872 180.192C245.933 180.192 245.107 179.936 244.392 179.424C243.688 178.901 243.139 178.181 242.744 177.264C242.349 176.336 242.152 175.259 242.152 174.032C242.152 172.805 242.349 171.733 242.744 170.816C243.139 169.888 243.688 169.168 244.392 168.656C245.096 168.144 245.917 167.888 246.856 167.888C247.795 167.888 248.616 168.144 249.32 168.656C250.024 169.168 250.573 169.888 250.968 170.816C251.363 171.733 251.56 172.805 251.56 174.032C251.56 175.259 251.363 176.336 250.968 177.264C250.584 178.192 250.04 178.912 249.336 179.424C248.632 179.936 247.811 180.192 246.872 180.192ZM246.872 178.992C247.555 178.992 248.152 178.784 248.664 178.368C249.176 177.952 249.576 177.376 249.864 176.64C250.152 175.893 250.296 175.024 250.296 174.032C250.296 173.04 250.152 172.176 249.864 171.44C249.576 170.693 249.176 170.117 248.664 169.712C248.152 169.296 247.549 169.088 246.856 169.088C246.173 169.088 245.576 169.296 245.064 169.712C244.552 170.117 244.152 170.693 243.864 171.44C243.576 172.176 243.432 173.04 243.432 174.032C243.432 175.013 243.576 175.877 243.864 176.624C244.152 177.371 244.552 177.952 245.064 178.368C245.587 178.784 246.189 178.992 246.872 178.992ZM259.519 180V177.184H253.455V176.144L259.519 168.08H260.639V176.144H262.095V177.184H260.639V180H259.519ZM254.431 176.608L254.287 176.144H259.519V169.184L259.919 169.296L254.431 176.608ZM268.669 180.192C267.73 180.192 266.904 179.936 266.189 179.424C265.485 178.901 264.936 178.181 264.541 177.264C264.146 176.336 263.949 175.259 263.949 174.032C263.949 172.805 264.146 171.733 264.541 170.816C264.936 169.888 265.485 169.168 266.189 168.656C266.893 168.144 267.714 167.888 268.653 167.888C269.592 167.888 270.413 168.144 271.117 168.656C271.821 169.168 272.37 169.888 272.765 170.816C273.16 171.733 273.357 172.805 273.357 174.032C273.357 175.259 273.16 176.336 272.765 177.264C272.381 178.192 271.837 178.912 271.133 179.424C270.429 179.936 269.608 180.192 268.669 180.192ZM268.669 178.992C269.352 178.992 269.949 178.784 270.461 178.368C270.973 177.952 271.373 177.376 271.661 176.64C271.949 175.893 272.093 175.024 272.093 174.032C272.093 173.04 271.949 172.176 271.661 171.44C271.373 170.693 270.973 170.117 270.461 169.712C269.949 169.296 269.346 169.088 268.653 169.088C267.97 169.088 267.373 169.296 266.861 169.712C266.349 170.117 265.949 170.693 265.661 171.44C265.373 172.176 265.229 173.04 265.229 174.032C265.229 175.013 265.373 175.877 265.661 176.624C265.949 177.371 266.349 177.952 266.861 178.368C267.384 178.784 267.986 178.992 268.669 178.992ZM281.316 180V177.184H275.252V176.144L281.316 168.08H282.436V176.144H283.892V177.184H282.436V180H281.316ZM276.228 176.608L276.084 176.144H281.316V169.184L281.716 169.296L276.228 176.608Z" fill="black"/>
<path d="M315.896 180V169.2H313.656V168.08H317.176V180H315.896ZM323.581 180.192C322.835 180.192 322.173 180.027 321.597 179.696C321.021 179.355 320.568 178.891 320.237 178.304C319.907 177.707 319.741 177.024 319.741 176.256C319.741 175.829 319.789 175.408 319.885 174.992C319.992 174.576 320.147 174.165 320.349 173.76C320.563 173.355 320.819 172.949 321.117 172.544L324.477 168.08H326.013L321.869 173.504L321.629 173.648C321.789 173.381 321.976 173.179 322.189 173.04C322.403 172.891 322.637 172.784 322.893 172.72C323.16 172.656 323.443 172.624 323.741 172.624C324.435 172.624 325.059 172.789 325.613 173.12C326.168 173.44 326.605 173.883 326.925 174.448C327.256 175.013 327.421 175.669 327.421 176.416C327.421 177.131 327.251 177.776 326.909 178.352C326.579 178.917 326.125 179.365 325.549 179.696C324.973 180.027 324.317 180.192 323.581 180.192ZM323.581 179.072C324.072 179.072 324.509 178.96 324.893 178.736C325.277 178.501 325.581 178.181 325.805 177.776C326.029 177.371 326.141 176.917 326.141 176.416C326.141 175.904 326.029 175.451 325.805 175.056C325.592 174.661 325.293 174.352 324.909 174.128C324.525 173.893 324.083 173.776 323.581 173.776C323.091 173.776 322.648 173.893 322.253 174.128C321.869 174.352 321.565 174.661 321.341 175.056C321.128 175.451 321.021 175.904 321.021 176.416C321.021 176.917 321.133 177.371 321.357 177.776C321.581 178.181 321.885 178.501 322.269 178.736C322.653 178.96 323.091 179.072 323.581 179.072ZM334.2 180.192C333.261 180.192 332.435 179.936 331.72 179.424C331.016 178.901 330.467 178.181 330.072 177.264C329.677 176.336 329.48 175.259 329.48 174.032C329.48 172.805 329.677 171.733 330.072 170.816C330.467 169.888 331.016 169.168 331.72 168.656C332.424 168.144 333.245 167.888 334.184 167.888C335.123 167.888 335.944 168.144 336.648 168.656C337.352 169.168 337.901 169.888 338.296 170.816C338.691 171.733 338.888 172.805 338.888 174.032C338.888 175.259 338.691 176.336 338.296 177.264C337.912 178.192 337.368 178.912 336.664 179.424C335.96 179.936 335.139 180.192 334.2 180.192ZM334.2 178.992C334.883 178.992 335.48 178.784 335.992 178.368C336.504 177.952 336.904 177.376 337.192 176.64C337.48 175.893 337.624 175.024 337.624 174.032C337.624 173.04 337.48 172.176 337.192 171.44C336.904 170.693 336.504 170.117 335.992 169.712C335.48 169.296 334.877 169.088 334.184 169.088C333.501 169.088 332.904 169.296 332.392 169.712C331.88 170.117 331.48 170.693 331.192 171.44C330.904 172.176 330.76 173.04 330.76 174.032C330.76 175.013 330.904 175.877 331.192 176.624C331.48 177.371 331.88 177.952 332.392 178.368C332.915 178.784 333.517 178.992 334.2 178.992ZM344.879 180.192C344.26 180.192 343.684 180.085 343.151 179.872C342.628 179.659 342.17 179.355 341.775 178.96C341.38 178.565 341.082 178.096 340.879 177.552L341.855 177.072C342.1 177.691 342.5 178.181 343.055 178.544C343.62 178.896 344.228 179.072 344.879 179.072C345.402 179.072 345.866 178.949 346.271 178.704C346.687 178.459 347.012 178.128 347.247 177.712C347.482 177.285 347.599 176.811 347.599 176.288C347.599 175.744 347.476 175.264 347.231 174.848C346.996 174.432 346.676 174.107 346.271 173.872C345.866 173.627 345.407 173.504 344.895 173.504C344.372 173.504 343.887 173.627 343.439 173.872C343.002 174.107 342.682 174.395 342.479 174.736L341.471 174.544L342.367 168.08H348.399V169.2H342.831L343.327 168.768L342.607 173.856L342.111 173.632C342.484 173.173 342.922 172.848 343.423 172.656C343.924 172.453 344.436 172.352 344.959 172.352C345.727 172.352 346.404 172.533 346.991 172.896C347.578 173.248 348.036 173.723 348.367 174.32C348.708 174.907 348.879 175.563 348.879 176.288C348.879 177.024 348.703 177.691 348.351 178.288C348.01 178.875 347.535 179.339 346.927 179.68C346.33 180.021 345.647 180.192 344.879 180.192Z" fill="black"/>
<path d="M91 197H418V227C418 240.255 407.255 251 394 251H115C101.745 251 91 240.255 91 227V197Z" fill="black"/>
<path d="M112.328 231V219.08H119.88V220.52H113.896V224.376H119.32V225.816H113.896V231H112.328ZM124.38 231.192C123.761 231.192 123.201 231.048 122.7 230.76C122.209 230.472 121.825 230.072 121.548 229.56C121.281 229.037 121.148 228.44 121.148 227.768V222.376H122.636V227.608C122.636 228.035 122.721 228.408 122.892 228.728C123.073 229.048 123.319 229.299 123.628 229.48C123.948 229.661 124.311 229.752 124.716 229.752C125.121 229.752 125.479 229.661 125.788 229.48C126.108 229.299 126.353 229.037 126.524 228.696C126.705 228.355 126.796 227.949 126.796 227.48V222.376H128.3V231H126.844V229.32L127.084 229.464C126.881 230.008 126.535 230.435 126.044 230.744C125.564 231.043 125.009 231.192 124.38 231.192ZM130.605 231V218.888H132.093V231H130.605ZM136.93 231.192C136.365 231.192 135.863 231.091 135.426 230.888C134.999 230.675 134.663 230.387 134.418 230.024C134.173 229.651 134.05 229.224 134.05 228.744C134.05 228.285 134.146 227.875 134.338 227.512C134.541 227.139 134.85 226.824 135.266 226.568C135.693 226.312 136.226 226.131 136.866 226.024L140.066 225.496V226.744L137.202 227.224C136.647 227.32 136.242 227.496 135.986 227.752C135.741 228.008 135.618 228.323 135.618 228.696C135.618 229.048 135.757 229.341 136.034 229.576C136.322 229.811 136.679 229.928 137.106 229.928C137.65 229.928 138.119 229.816 138.514 229.592C138.919 229.357 139.234 229.043 139.458 228.648C139.693 228.253 139.81 227.816 139.81 227.336V225.144C139.81 224.675 139.634 224.296 139.282 224.008C138.941 223.709 138.487 223.56 137.922 223.56C137.431 223.56 136.994 223.688 136.61 223.944C136.237 224.189 135.959 224.52 135.778 224.936L134.482 224.264C134.642 223.869 134.898 223.517 135.25 223.208C135.602 222.888 136.013 222.637 136.482 222.456C136.951 222.275 137.442 222.184 137.954 222.184C138.615 222.184 139.197 222.312 139.698 222.568C140.199 222.813 140.589 223.16 140.866 223.608C141.154 224.045 141.298 224.557 141.298 225.144V231H139.842V229.368L140.114 229.464C139.933 229.805 139.687 230.104 139.378 230.36C139.069 230.616 138.706 230.819 138.29 230.968C137.874 231.117 137.421 231.192 136.93 231.192ZM143.605 231V222.376H145.061V224.056L144.821 223.912C145.034 223.368 145.376 222.947 145.845 222.648C146.325 222.339 146.885 222.184 147.525 222.184C148.144 222.184 148.693 222.323 149.173 222.6C149.664 222.877 150.048 223.261 150.325 223.752C150.613 224.243 150.757 224.797 150.757 225.416V231H149.253V225.896C149.253 225.416 149.168 225.011 148.997 224.68C148.826 224.349 148.581 224.093 148.261 223.912C147.952 223.72 147.594 223.624 147.189 223.624C146.784 223.624 146.421 223.72 146.101 223.912C145.792 224.093 145.546 224.355 145.365 224.696C145.184 225.027 145.093 225.427 145.093 225.896V231H143.605ZM160.116 231.192C159.423 231.192 158.788 231.037 158.212 230.728C157.647 230.419 157.209 229.981 156.9 229.416L157.108 229.16V231H155.652V218.888H157.14V224.232L156.916 223.864C157.236 223.352 157.673 222.947 158.228 222.648C158.783 222.339 159.417 222.184 160.132 222.184C160.943 222.184 161.668 222.381 162.308 222.776C162.959 223.171 163.471 223.709 163.844 224.392C164.217 225.064 164.404 225.832 164.404 226.696C164.404 227.539 164.217 228.301 163.844 228.984C163.471 229.667 162.959 230.205 162.308 230.6C161.668 230.995 160.937 231.192 160.116 231.192ZM160.004 229.752C160.548 229.752 161.033 229.619 161.46 229.352C161.887 229.085 162.217 228.723 162.452 228.264C162.697 227.795 162.82 227.272 162.82 226.696C162.82 226.099 162.697 225.576 162.452 225.128C162.217 224.669 161.887 224.307 161.46 224.04C161.033 223.763 160.548 223.624 160.004 223.624C159.46 223.624 158.969 223.757 158.532 224.024C158.105 224.291 157.764 224.659 157.508 225.128C157.263 225.587 157.14 226.109 157.14 226.696C157.14 227.272 157.263 227.795 157.508 228.264C157.764 228.723 158.105 229.085 158.532 229.352C158.969 229.619 159.46 229.752 160.004 229.752ZM166.355 231V222.376H167.843V231H166.355ZM166.355 221V219.08H167.843V221H166.355ZM170.152 231V222.376H171.608V224.056L171.368 223.912C171.581 223.368 171.923 222.947 172.392 222.648C172.872 222.339 173.432 222.184 174.072 222.184C174.691 222.184 175.24 222.323 175.72 222.6C176.211 222.877 176.595 223.261 176.872 223.752C177.16 224.243 177.304 224.797 177.304 225.416V231H175.8V225.896C175.8 225.416 175.715 225.011 175.544 224.68C175.373 224.349 175.128 224.093 174.808 223.912C174.499 223.72 174.141 223.624 173.736 223.624C173.331 223.624 172.968 223.72 172.648 223.912C172.339 224.093 172.093 224.355 171.912 224.696C171.731 225.027 171.64 225.427 171.64 225.896V231H170.152ZM182.199 231V222.376H183.655V223.96L183.495 223.736C183.698 223.245 184.007 222.883 184.423 222.648C184.839 222.403 185.346 222.28 185.943 222.28H186.471V223.688H185.719C185.111 223.688 184.62 223.88 184.247 224.264C183.874 224.637 183.687 225.171 183.687 225.864V231H182.199ZM190.321 231.192C189.755 231.192 189.254 231.091 188.817 230.888C188.39 230.675 188.054 230.387 187.809 230.024C187.563 229.651 187.441 229.224 187.441 228.744C187.441 228.285 187.537 227.875 187.729 227.512C187.931 227.139 188.241 226.824 188.657 226.568C189.083 226.312 189.617 226.131 190.257 226.024L193.457 225.496V226.744L190.593 227.224C190.038 227.32 189.633 227.496 189.377 227.752C189.131 228.008 189.009 228.323 189.009 228.696C189.009 229.048 189.147 229.341 189.425 229.576C189.713 229.811 190.07 229.928 190.497 229.928C191.041 229.928 191.51 229.816 191.905 229.592C192.31 229.357 192.625 229.043 192.849 228.648C193.083 228.253 193.201 227.816 193.201 227.336V225.144C193.201 224.675 193.025 224.296 192.673 224.008C192.331 223.709 191.878 223.56 191.313 223.56C190.822 223.56 190.385 223.688 190.001 223.944C189.627 224.189 189.35 224.52 189.169 224.936L187.873 224.264C188.033 223.869 188.289 223.517 188.641 223.208C188.993 222.888 189.403 222.637 189.873 222.456C190.342 222.275 190.833 222.184 191.345 222.184C192.006 222.184 192.587 222.312 193.089 222.568C193.59 222.813 193.979 223.16 194.257 223.608C194.545 224.045 194.689 224.557 194.689 225.144V231H193.233V229.368L193.505 229.464C193.323 229.805 193.078 230.104 192.769 230.36C192.459 230.616 192.097 230.819 191.681 230.968C191.265 231.117 190.811 231.192 190.321 231.192ZM201.46 231.192C200.766 231.192 200.132 231.037 199.556 230.728C198.99 230.419 198.553 229.981 198.244 229.416L198.452 229.16V231H196.996V218.888H198.484V224.232L198.26 223.864C198.58 223.352 199.017 222.947 199.572 222.648C200.126 222.339 200.761 222.184 201.476 222.184C202.286 222.184 203.012 222.381 203.652 222.776C204.302 223.171 204.814 223.709 205.188 224.392C205.561 225.064 205.748 225.832 205.748 226.696C205.748 227.539 205.561 228.301 205.188 228.984C204.814 229.667 204.302 230.205 203.652 230.6C203.012 230.995 202.281 231.192 201.46 231.192ZM201.348 229.752C201.892 229.752 202.377 229.619 202.804 229.352C203.23 229.085 203.561 228.723 203.796 228.264C204.041 227.795 204.164 227.272 204.164 226.696C204.164 226.099 204.041 225.576 203.796 225.128C203.561 224.669 203.23 224.307 202.804 224.04C202.377 223.763 201.892 223.624 201.348 223.624C200.804 223.624 200.313 223.757 199.876 224.024C199.449 224.291 199.108 224.659 198.852 225.128C198.606 225.587 198.484 226.109 198.484 226.696C198.484 227.272 198.606 227.795 198.852 228.264C199.108 228.723 199.449 229.085 199.876 229.352C200.313 229.619 200.804 229.752 201.348 229.752ZM212.163 231.192C211.47 231.192 210.835 231.037 210.259 230.728C209.694 230.419 209.256 229.981 208.947 229.416L209.155 229.16V231H207.699V218.888H209.187V224.232L208.963 223.864C209.283 223.352 209.72 222.947 210.275 222.648C210.83 222.339 211.464 222.184 212.179 222.184C212.99 222.184 213.715 222.381 214.355 222.776C215.006 223.171 215.518 223.709 215.891 224.392C216.264 225.064 216.451 225.832 216.451 226.696C216.451 227.539 216.264 228.301 215.891 228.984C215.518 229.667 215.006 230.205 214.355 230.6C213.715 230.995 212.984 231.192 212.163 231.192ZM212.051 229.752C212.595 229.752 213.08 229.619 213.507 229.352C213.934 229.085 214.264 228.723 214.499 228.264C214.744 227.795 214.867 227.272 214.867 226.696C214.867 226.099 214.744 225.576 214.499 225.128C214.264 224.669 213.934 224.307 213.507 224.04C213.08 223.763 212.595 223.624 212.051 223.624C211.507 223.624 211.016 223.757 210.579 224.024C210.152 224.291 209.811 224.659 209.555 225.128C209.31 225.587 209.187 226.109 209.187 226.696C209.187 227.272 209.31 227.795 209.555 228.264C209.811 228.723 210.152 229.085 210.579 229.352C211.016 229.619 211.507 229.752 212.051 229.752ZM220.93 231.192C220.365 231.192 219.863 231.091 219.426 230.888C218.999 230.675 218.663 230.387 218.418 230.024C218.173 229.651 218.05 229.224 218.05 228.744C218.05 228.285 218.146 227.875 218.338 227.512C218.541 227.139 218.85 226.824 219.266 226.568C219.693 226.312 220.226 226.131 220.866 226.024L224.066 225.496V226.744L221.202 227.224C220.647 227.32 220.242 227.496 219.986 227.752C219.741 228.008 219.618 228.323 219.618 228.696C219.618 229.048 219.757 229.341 220.034 229.576C220.322 229.811 220.679 229.928 221.106 229.928C221.65 229.928 222.119 229.816 222.514 229.592C222.919 229.357 223.234 229.043 223.458 228.648C223.693 228.253 223.81 227.816 223.81 227.336V225.144C223.81 224.675 223.634 224.296 223.282 224.008C222.941 223.709 222.487 223.56 221.922 223.56C221.431 223.56 220.994 223.688 220.61 223.944C220.237 224.189 219.959 224.52 219.778 224.936L218.482 224.264C218.642 223.869 218.898 223.517 219.25 223.208C219.602 222.888 220.013 222.637 220.482 222.456C220.951 222.275 221.442 222.184 221.954 222.184C222.615 222.184 223.197 222.312 223.698 222.568C224.199 222.813 224.589 223.16 224.866 223.608C225.154 224.045 225.298 224.557 225.298 225.144V231H223.842V229.368L224.114 229.464C223.933 229.805 223.687 230.104 223.378 230.36C223.069 230.616 222.706 230.819 222.29 230.968C221.874 231.117 221.421 231.192 220.93 231.192ZM227.605 231V218.888H229.093V224.056L228.821 223.912C229.034 223.368 229.376 222.947 229.845 222.648C230.325 222.339 230.885 222.184 231.525 222.184C232.144 222.184 232.693 222.323 233.173 222.6C233.664 222.877 234.048 223.261 234.325 223.752C234.613 224.243 234.757 224.797 234.757 225.416V231H233.253V225.896C233.253 225.416 233.162 225.011 232.981 224.68C232.81 224.349 232.57 224.093 232.261 223.912C231.952 223.72 231.594 223.624 231.189 223.624C230.794 223.624 230.437 223.72 230.117 223.912C229.797 224.093 229.546 224.355 229.365 224.696C229.184 225.027 229.093 225.427 229.093 225.896V231H227.605Z" fill="white"/>
<path d="M319.328 231V219.08H327.088V220.52H320.896V224.296H326.768V225.736H320.896V229.56H327.088V231H319.328ZM327.879 231L330.903 226.68L327.895 222.376H329.687L332.263 226.12H331.351L333.895 222.376H335.703L332.695 226.68L335.687 231H333.895L331.351 227.256H332.247L329.703 231H327.879ZM337.027 234.2V222.376H338.483V224.232L338.291 223.864C338.611 223.352 339.048 222.947 339.603 222.648C340.158 222.339 340.792 222.184 341.507 222.184C342.318 222.184 343.043 222.381 343.683 222.776C344.334 223.171 344.846 223.709 345.219 224.392C345.592 225.064 345.779 225.832 345.779 226.696C345.779 227.539 345.592 228.301 345.219 228.984C344.846 229.667 344.334 230.205 343.683 230.6C343.043 230.995 342.312 231.192 341.491 231.192C340.798 231.192 340.163 231.037 339.587 230.728C339.022 230.419 338.584 229.981 338.275 229.416L338.515 229.16V234.2H337.027ZM341.379 229.752C341.923 229.752 342.408 229.619 342.835 229.352C343.262 229.085 343.592 228.723 343.827 228.264C344.072 227.795 344.195 227.272 344.195 226.696C344.195 226.099 344.072 225.576 343.827 225.128C343.592 224.669 343.262 224.307 342.835 224.04C342.408 223.763 341.923 223.624 341.379 223.624C340.835 223.624 340.344 223.757 339.907 224.024C339.48 224.291 339.139 224.659 338.883 225.128C338.638 225.587 338.515 226.109 338.515 226.696C338.515 227.272 338.638 227.795 338.883 228.264C339.139 228.723 339.48 229.085 339.907 229.352C340.344 229.619 340.835 229.752 341.379 229.752ZM355.152 231.192C354.202 231.192 353.37 230.936 352.656 230.424C351.952 229.901 351.402 229.181 351.008 228.264C350.613 227.336 350.416 226.259 350.416 225.032C350.416 223.805 350.613 222.733 351.008 221.816C351.402 220.888 351.952 220.168 352.656 219.656C353.36 219.144 354.186 218.888 355.136 218.888C356.085 218.888 356.912 219.144 357.616 219.656C358.32 220.168 358.869 220.888 359.264 221.816C359.669 222.733 359.872 223.805 359.872 225.032C359.872 226.259 359.674 227.336 359.28 228.264C358.885 229.192 358.33 229.912 357.616 230.424C356.912 230.936 356.09 231.192 355.152 231.192ZM355.152 229.736C355.792 229.736 356.346 229.544 356.816 229.16C357.285 228.765 357.648 228.216 357.904 227.512C358.17 226.808 358.304 225.981 358.304 225.032C358.304 224.083 358.17 223.256 357.904 222.552C357.648 221.848 357.28 221.304 356.8 220.92C356.33 220.536 355.776 220.344 355.136 220.344C354.496 220.344 353.941 220.536 353.472 220.92C353.002 221.304 352.634 221.848 352.368 222.552C352.112 223.256 351.984 224.083 351.984 225.032C351.984 225.971 352.112 226.792 352.368 227.496C352.634 228.2 353.002 228.749 353.472 229.144C353.952 229.539 354.512 229.736 355.152 229.736ZM365.962 231.192C365.162 231.192 364.453 231.032 363.834 230.712C363.226 230.392 362.746 229.96 362.394 229.416C362.053 228.861 361.882 228.243 361.882 227.56C361.882 226.792 362.095 226.12 362.522 225.544C362.949 224.968 363.535 224.557 364.282 224.312L364.25 224.712C363.685 224.488 363.242 224.131 362.922 223.64C362.613 223.139 362.458 222.6 362.458 222.024C362.458 221.416 362.607 220.877 362.906 220.408C363.215 219.939 363.631 219.571 364.154 219.304C364.687 219.027 365.29 218.888 365.962 218.888C366.634 218.888 367.231 219.021 367.754 219.288C368.277 219.555 368.687 219.928 368.986 220.408C369.295 220.877 369.45 221.416 369.45 222.024C369.45 222.632 369.285 223.176 368.954 223.656C368.634 224.136 368.207 224.493 367.674 224.728L367.626 224.312C368.383 224.557 368.975 224.973 369.402 225.56C369.829 226.136 370.042 226.803 370.042 227.56C370.042 228.243 369.866 228.861 369.514 229.416C369.173 229.96 368.693 230.392 368.074 230.712C367.466 231.032 366.762 231.192 365.962 231.192ZM365.962 229.832C366.463 229.832 366.901 229.736 367.274 229.544C367.647 229.352 367.935 229.085 368.138 228.744C368.351 228.392 368.458 227.992 368.458 227.544C368.458 227.085 368.351 226.685 368.138 226.344C367.935 225.992 367.647 225.725 367.274 225.544C366.901 225.352 366.463 225.256 365.962 225.256C365.461 225.256 365.018 225.352 364.634 225.544C364.261 225.725 363.973 225.992 363.77 226.344C363.567 226.685 363.466 227.085 363.466 227.544C363.466 227.992 363.567 228.392 363.77 228.744C363.973 229.085 364.261 229.352 364.634 229.544C365.018 229.736 365.461 229.832 365.962 229.832ZM365.962 223.896C366.325 223.896 366.645 223.816 366.922 223.656C367.21 223.496 367.439 223.283 367.61 223.016C367.781 222.739 367.866 222.419 367.866 222.056C367.866 221.693 367.781 221.379 367.61 221.112C367.439 220.845 367.21 220.637 366.922 220.488C366.645 220.328 366.325 220.248 365.962 220.248C365.589 220.248 365.258 220.328 364.97 220.488C364.682 220.637 364.453 220.845 364.282 221.112C364.111 221.379 364.026 221.693 364.026 222.056C364.026 222.419 364.111 222.739 364.282 223.016C364.453 223.283 364.682 223.496 364.97 223.656C365.258 223.816 365.589 223.896 365.962 223.896ZM371.096 232.92L376.472 219.736H378.152L372.776 232.92H371.096ZM379.13 231V229.912L382.426 226.344C383.076 225.651 383.594 225.08 383.978 224.632C384.372 224.184 384.66 223.784 384.842 223.432C385.023 223.08 385.114 222.707 385.114 222.312C385.114 221.661 384.922 221.16 384.538 220.808C384.154 220.456 383.647 220.28 383.018 220.28C382.378 220.28 381.834 220.467 381.386 220.84C380.938 221.203 380.628 221.72 380.458 222.392L379.034 222.024C379.172 221.384 379.428 220.829 379.802 220.36C380.175 219.891 380.639 219.528 381.194 219.272C381.748 219.016 382.356 218.888 383.018 218.888C383.743 218.888 384.378 219.032 384.922 219.32C385.476 219.597 385.908 219.987 386.218 220.488C386.538 220.989 386.698 221.571 386.698 222.232C386.698 222.669 386.607 223.096 386.426 223.512C386.244 223.928 385.978 224.371 385.626 224.84C385.274 225.299 384.815 225.832 384.25 226.44L381.306 229.64H386.954V231H379.13ZM392.66 231.192C391.892 231.192 391.209 231.021 390.612 230.68C390.025 230.339 389.561 229.875 389.22 229.288C388.878 228.691 388.708 228.013 388.708 227.256C388.708 226.84 388.756 226.429 388.852 226.024C388.948 225.619 389.102 225.208 389.316 224.792C389.529 224.376 389.801 223.944 390.132 223.496L393.492 219.08H395.38L391.268 224.424L390.98 224.392C391.14 224.179 391.316 224.013 391.508 223.896C391.71 223.779 391.924 223.693 392.148 223.64C392.382 223.587 392.628 223.56 392.884 223.56C393.588 223.56 394.217 223.725 394.772 224.056C395.337 224.376 395.78 224.819 396.1 225.384C396.43 225.949 396.596 226.6 396.596 227.336C396.596 228.072 396.425 228.733 396.084 229.32C395.742 229.896 395.273 230.355 394.676 230.696C394.089 231.027 393.417 231.192 392.66 231.192ZM392.66 229.784C393.108 229.784 393.508 229.683 393.86 229.48C394.212 229.267 394.489 228.973 394.692 228.6C394.905 228.227 395.012 227.811 395.012 227.352C395.012 226.872 394.91 226.456 394.708 226.104C394.505 225.741 394.228 225.453 393.876 225.24C393.524 225.027 393.118 224.92 392.66 224.92C392.212 224.92 391.806 225.027 391.444 225.24C391.081 225.453 390.798 225.741 390.596 226.104C390.393 226.456 390.292 226.872 390.292 227.352C390.292 227.811 390.393 228.227 390.596 228.6C390.809 228.973 391.092 229.267 391.444 229.48C391.806 229.683 392.212 229.784 392.66 229.784Z" fill="white"/>
</g>
<defs>
<clipPath id="clip0_33_287">
<rect x="14.9841" width="327" height="214" rx="24" transform="rotate(4.01509 14.9841 0)" fill="white"/>
</clipPath>
<clipPath id="clip1_33_287">
<rect width="327" height="112" fill="white" transform="translate(14.9841) rotate(4.01509)"/>
</clipPath>
<clipPath id="clip2_33_287">
<rect x="91" y="37" width="327" height="214" rx="24" fill="white"/>
</clipPath>
</defs>
</svg>
